<svg width="1178" height="601" xmlns="http://www.w3.org/2000/svg" xmlns:xlink="http://www.w3.org/1999/xlink" overflow="hidden"><defs><clipPath id="clip0"><rect x="65" y="60" width="1178" height="601"/></clipPath></defs><g clip-path="url(#clip0)" transform="translate(-65 -60)"><rect x="74.5001" y="65.5001" width="1168" height="595" stroke="#0070C0" stroke-width="1.33333" stroke-miterlimit="8" stroke-dasharray="10.6667 4" fill="#FFFFFF" fill-opacity="0.101961"/><rect x="75" y="65" width="202" height="48" fill="#FFFFFF" fill-opacity="0.101961"/><text fill="#0070C0" font-family="DengXian,DengXian_MSFontService,sans-serif" font-weight="400" font-size="32" transform="translate(84.6264 100)">NVM space</text><rect x="940.5" y="276.5" width="104" height="43" stroke="#000000" stroke-width="1.33333" stroke-miterlimit="8" fill="none"/><text font-family="DengXian,DengXian_MSFontService,sans-serif" font-weight="400" font-size="24" transform="translate(985.5 305)">1</text><rect x="1044.5" y="276.5" width="157" height="43" stroke="#000000" stroke-width="1.33333" stroke-miterlimit="8" fill="none"/><text font-family="DengXian,DengXian_MSFontService,sans-serif" font-weight="400" font-size="24" transform="translate(1058.88 305)">pre<tspan font-size="24" x="34.3334" y="0">_root_ptr</tspan></text><rect x="940.5" y="142.5" width="104" height="42" stroke="#000000" stroke-width="1.33333" stroke-miterlimit="8" fill="none"/><text font-family="DengXian,DengXian_MSFontService,sans-serif" font-weight="400" font-size="24" transform="translate(951.767 170)">valid bit</text><rect x="1044.5" y="142.5" width="158" height="42" stroke="#000000" stroke-width="1.33333" stroke-miterlimit="8" fill="none"/><text font-family="DengXian,DengXian_MSFontService,sans-serif" font-weight="400" font-size="24" transform="translate(1081.48 170)">r<tspan font-size="24" x="8.16675" y="0">oot_ptr</tspan></text><path d="M940.5 126.5C940.5 121.253 943.746 117 947.751 117L1064.25 117C1068.25 117 1071.5 112.747 1071.5 107.5 1071.5 112.747 1074.75 117 1078.75 117L1195.25 117C1199.25 117 1202.5 121.253 1202.5 126.5" stroke="#000000" stroke-width="1.33333" stroke-miterlimit="8" fill="none" fill-rule="evenodd"/><text font-family="DengXian,DengXian_MSFontService,sans-serif" font-weight="400" font-size="16" transform="translate(1024.73 101)">4 <tspan font-size="16" x="12.8334" y="0">Byte + 1 bit</tspan><tspan font-size="15" x="-46.4665" y="34">1 bit</tspan><tspan font-size="15" x="78.9169" y="33">4 Byte</tspan></text><rect x="940.5" y="561.5" width="104" height="43" stroke="#000000" stroke-width="1.33333" stroke-miterlimit="8" fill="none"/><text font-family="DengXian,DengXian_MSFontService,sans-serif" font-weight="400" font-size="24" transform="translate(985.5 590)">1</text><rect x="1044.5" y="561.5" width="157" height="43" stroke="#000000" stroke-width="1.33333" stroke-miterlimit="8" fill="none"/><text font-family="DengXian,DengXian_MSFontService,sans-serif" font-weight="400" font-size="24" transform="translate(1054.88 590)">new<tspan font-size="24" x="42.3334" y="0">_root_ptr</tspan></text><rect x="939.5" y="419.5" width="104" height="42" stroke="#000000" stroke-width="1.33333" stroke-miterlimit="8" fill="none"/><text font-family="DengXian,DengXian_MSFontService,sans-serif" font-weight="400" font-size="24" transform="translate(984.599 447)">0</text><rect x="1043.5" y="419.5" width="158" height="42" stroke="#000000" stroke-width="1.33333" stroke-miterlimit="8" fill="none"/><text font-family="DengXian,DengXian_MSFontService,sans-serif" font-weight="400" font-size="24" transform="translate(1057.98 447)">pre<tspan font-size="24" x="34.3334" y="0">_root_ptr</tspan></text><path d="M1049.5 372.5 1060.5 372.5 1060.5 345.5 1082.5 345.5 1082.5 372.5 1093.5 372.5 1071.5 394.5Z" stroke="#4472C4" stroke-width="1.33333" stroke-miterlimit="8" fill="#FFFFFF" fill-rule="evenodd"/><path d="M1050.5 514 1061.75 514 1061.75 487.5 1084.25 487.5 1084.25 514 1095.5 514 1073 536.5Z" stroke="#4472C4" stroke-width="1.33333" stroke-miterlimit="8" fill="#FFFFFF" fill-rule="evenodd"/><text font-family="DengXian,DengXian_MSFontService,sans-serif" font-weight="400" font-size="24" transform="translate(282.878 594)">previous<tspan font-size="32" x="244.706" y="-476">r</tspan><tspan font-size="32" x="255.539" y="-476">oot_ptr</tspan></text><path d="M0.20099-0.265922 85.6825 64.343 85.2806 64.8749-0.20099 0.265922ZM86.8298 60.614 90.8 68.6288 82.006 66.9961Z" transform="matrix(-1 0 0 1 557.3 131.5)"/><text font-family="DengXian,DengXian_MSFontService,sans-serif" font-weight="400" font-size="24" transform="translate(682.685 593)">new</text><path d="M611.716 131.246 613.746 132.976 613.314 133.483 611.284 131.754ZM615.268 134.273 617.298 136.002 616.866 136.51 614.836 134.78ZM618.821 137.299 620.851 139.029 620.418 139.536 618.388 137.807ZM622.373 140.326 624.403 142.055 623.97 142.562 621.941 140.833ZM625.925 143.352 627.955 145.081 627.523 145.589 625.493 143.86ZM629.477 146.379 631.507 148.108 631.075 148.615 629.045 146.886ZM633.03 149.405 635.06 151.134 634.627 151.642 632.597 149.912ZM636.582 152.431 638.612 154.161 638.179 154.668 636.15 152.939ZM640.134 155.458 642.164 157.187 641.732 157.695 639.702 155.965ZM643.686 158.484 645.716 160.214 645.284 160.721 643.254 158.992ZM647.239 161.511 649.268 163.24 648.836 163.748 646.806 162.018ZM650.791 164.537 652.821 166.267 652.388 166.774 650.359 165.045ZM654.343 167.564 656.373 169.293 655.941 169.8 653.911 168.071ZM657.895 170.59 659.925 172.319 659.493 172.827 657.463 171.098ZM661.448 173.617 663.477 175.346 663.045 175.853 661.015 174.124ZM665 176.643 667.03 178.372 666.597 178.88 664.568 177.15ZM668.552 179.669 670.582 181.399 670.15 181.906 668.12 180.177ZM672.104 182.696 674.134 184.425 673.702 184.933 671.672 183.203ZM675.657 185.722 677.686 187.452 677.254 187.959 675.224 186.23ZM679.209 188.749 681.239 190.478 680.806 190.986 678.776 189.256ZM682.761 191.775 684.791 193.505 684.359 194.012 682.329 192.283ZM686.313 194.802 688.343 196.531 687.911 197.038 685.881 195.309ZM689.866 197.828 691.895 199.557 691.463 200.065 689.433 198.336ZM693.418 200.855 693.852 201.224 693.42 201.732 692.985 201.362ZM695.215 197.569 698.711 205.802 690.027 203.658Z" fill="#FF0000"/><path d="M660.5 152.5C660.5 144.768 666.768 138.5 674.5 138.5 682.232 138.5 688.5 144.768 688.5 152.5 688.5 160.232 682.232 166.5 674.5 166.5 666.768 166.5 660.5 160.232 660.5 152.5Z" stroke="#FF0000" stroke-width="1.33333" stroke-miterlimit="8" fill="none" fill-rule="evenodd"/><text fill="#FF0000" font-family="DengXian,DengXian_MSFontService,sans-serif" font-weight="400" font-size="19" transform="translate(669.005 158)">3</text><path d="M631.5 257.5C631.5 251.977 634.917 247.5 639.132 247.5L750.368 247.5C754.583 247.5 758 243.023 758 237.5 758 243.023 761.417 247.5 765.632 247.5L876.868 247.5C881.083 247.5 884.5 251.977 884.5 257.5" stroke="#000000" stroke-width="1.33333" stroke-miterlimit="8" fill="none" fill-rule="evenodd"/><text font-family="DengXian,DengXian_MSFontService,sans-serif" font-weight="400" font-size="16" transform="translate(719.896 233)">root_node(128)</text><rect x="631.5" y="262.5" width="75" height="42" stroke="#000000" stroke-width="1.33333" stroke-miterlimit="8" fill="none"/><text fill="#FF0000" font-family="DengXian,DengXian_MSFontService,sans-serif" font-weight="400" font-size="16" transform="translate(649.22 288)">area1</text><rect x="706.5" y="262.5" width="104" height="42" stroke="#000000" stroke-width="1.33333" stroke-miterlimit="8" fill="none"/><text font-family="Calibri,Calibri_MSFontService,sans-serif" font-weight="400" font-size="24" transform="translate(736.737 291)">···<tspan font-size="24" x="24" y="0">···</tspan></text><rect x="809.5" y="262.5" width="75" height="42" stroke="#000000" stroke-width="1.33333" stroke-miterlimit="8" fill="none"/><text fill="#FF0000" font-family="DengXian,DengXian_MSFontService,sans-serif" font-weight="400" font-size="16" transform="translate(819.186 288)">area128</text><rect x="545.5" y="398.5" width="75" height="42" stroke="#000000" stroke-width="1.33333" stroke-miterlimit="8" fill="none"/><text fill="#00B050" font-family="DengXian,DengXian_MSFontService,sans-serif" font-weight="400" font-size="16" transform="translate(560.347 424)">block1</text><rect x="620.5" y="398.5" width="104" height="42" stroke="#000000" stroke-width="1.33333" stroke-miterlimit="8" fill="none"/><text font-family="Calibri,Calibri_MSFontService,sans-serif" font-weight="400" font-size="24" transform="translate(651.281 427)">···<tspan font-size="24" x="24" y="0">···</tspan></text><rect x="724.5" y="398.5" width="75" height="42" stroke="#000000" stroke-width="1.33333" stroke-miterlimit="8" fill="none"/><text fill="#00B050" font-family="DengXian,DengXian_MSFontService,sans-serif" font-weight="400" font-size="16" transform="translate(736.747 424)">b<tspan font-size="16" x="9.16669" y="0">lock n</tspan></text><path d="M0.297856-0.149642 1.49499 2.23321 0.899282 2.53249-0.297856 0.149642ZM2.39285 4.02034 3.58999 6.40319 2.99427 6.70248 1.79714 4.31963ZM4.48784 8.19033 5.68498 10.5732 5.08927 10.8725 3.89213 8.48962ZM6.58283 12.3603 7.77997 14.7432 7.18426 15.0425 5.98712 12.6596ZM8.67782 16.5303 9.87496 18.9132 9.27925 19.2124 8.08211 16.8296ZM10.7728 20.7003 11.97 23.0831 11.3742 23.3824 10.1771 20.9996ZM12.8678 24.8703 14.0649 27.2531 13.4692 27.5524 12.2721 25.1696ZM14.9628 29.0403 16.1599 31.4231 15.5642 31.7224 14.3671 29.3396ZM18.9669 28.8426 18.984 37.7869 11.8184 32.434Z" fill="#FF0000" transform="matrix(-1 0 0 1 658.484 313.5)"/><rect x="540.5" y="498.5" width="75" height="42" stroke="#000000" stroke-width="1.33333" stroke-miterlimit="8" fill="none"/><text fill="#4472C4" font-family="DengXian,DengXian_MSFontService,sans-serif" font-weight="400" font-size="16" transform="translate(555.227 524)">block1</text><path d="M0.308275-0.126797 1.32265 2.33941 0.7061 2.593-0.308275 0.126797ZM2.08343 4.18906 3.09781 6.65526 2.48126 6.90885 1.46688 4.44265ZM3.85859 8.50491 4.87297 10.9711 4.25642 11.2247 3.24204 8.7585ZM5.63375 12.8208 6.64812 15.287 6.03157 15.5406 5.0172 13.0744ZM7.4089 17.1366 8.42328 19.6028 7.80673 19.8564 6.79235 17.3902ZM9.18406 21.4525 10.1984 23.9187 9.58189 24.1723 8.56751 21.7061ZM10.9592 25.7683 11.9736 28.2345 11.357 28.4881 10.3427 26.0219ZM12.7344 30.0842 13.7488 32.5504 13.1322 32.804 12.1178 30.3378ZM14.5095 34.4 15.5239 36.8662 14.9074 37.1198 13.893 34.6536ZM16.2847 38.7159 16.6862 39.6921 16.0697 39.9457 15.6681 38.9695ZM19.5701 37.0643 18.9139 45.9845 12.1715 40.1074Z" fill="#FF0000" transform="matrix(-1 0 0 1 579.414 445.5)"/><text font-family="Calibri,Calibri_MSFontService,sans-serif" font-weight="400" font-size="24" transform="translate(686.153 342)">···<tspan font-size="24" x="24" y="0">···</tspan><tspan font-size="24" x="139.425" y="85">···</tspan><tspan font-size="24" x="163.425" y="85">···</tspan><tspan font-size="24" x="-76.3494" y="136">···</tspan><tspan font-size="24" x="-52.3494" y="136">···</tspan><tspan font-size="24" x="49.5402" y="186">···</tspan><tspan font-size="24" x="73.5402" y="186">···</tspan></text><rect x="631.5" y="498.5" width="75" height="42" stroke="#000000" stroke-width="1.33333" stroke-miterlimit="8" fill="none"/><text fill="#4472C4" font-family="DengXian,DengXian_MSFontService,sans-serif" font-weight="400" font-size="16" transform="translate(645.774 524)">block2</text><path d="M529.5 464C529.5 456.544 535.544 450.5 543 450.5 550.456 450.5 556.5 456.544 556.5 464 556.5 471.456 550.456 477.5 543 477.5 535.544 477.5 529.5 471.456 529.5 464Z" stroke="#FF0000" stroke-width="1.33333" stroke-miterlimit="8" fill="none" fill-rule="evenodd"/><text fill="#FF0000" font-family="DengXian,DengXian_MSFontService,sans-serif" font-weight="400" font-size="19" transform="translate(537.609 469)">1</text><path d="M606.5 328.5C606.5 320.768 612.768 314.5 620.5 314.5 628.232 314.5 634.5 320.768 634.5 328.5 634.5 336.232 628.232 342.5 620.5 342.5 612.768 342.5 606.5 336.232 606.5 328.5Z" stroke="#FF0000" stroke-width="1.33333" stroke-miterlimit="8" fill="none" fill-rule="evenodd"/><text fill="#FF0000" font-family="DengXian,DengXian_MSFontService,sans-serif" font-weight="400" font-size="19" transform="translate(614.92 334)">2</text><path d="M545.5 395.5C545.5 389.701 549.088 385 553.514 385L664.486 385C668.912 385 672.5 380.299 672.5 374.5 672.5 380.299 676.088 385 680.514 385L791.486 385C795.912 385 799.5 389.701 799.5 395.5" stroke="#000000" stroke-width="1.33333" stroke-miterlimit="8" fill="none" fill-rule="evenodd"/><text font-family="DengXian,DengXian_MSFontService,sans-serif" font-weight="400" font-size="16" transform="translate(633.056 368)">area_node(n)</text><path d="M265.5 257.5C265.5 252.253 268.746 248 272.751 248L384.75 248C388.754 248 392 243.747 392 238.5 392 243.747 395.246 248 399.251 248L511.25 248C515.254 248 518.5 252.253 518.5 257.5" stroke="#000000" stroke-width="1.33333" stroke-miterlimit="8" fill="none" fill-rule="evenodd"/><text font-family="DengXian,DengXian_MSFontService,sans-serif" font-weight="400" font-size="16" transform="translate(354.076 234)">root_node(128)</text><rect x="265.5" y="262.5" width="75" height="43" stroke="#000000" stroke-width="1.33333" stroke-miterlimit="8" fill="none"/><text font-family="DengXian,DengXian_MSFontService,sans-serif" font-weight="400" font-size="16" transform="translate(283.4 289)">area1</text><rect x="340.5" y="262.5" width="104" height="43" stroke="#000000" stroke-width="1.33333" stroke-miterlimit="8" fill="none"/><text font-family="Calibri,Calibri_MSFontService,sans-serif" font-weight="400" font-size="24" transform="translate(370.917 292)">···<tspan font-size="24" x="24" y="0">···</tspan></text><rect x="443.5" y="262.5" width="75" height="43" stroke="#000000" stroke-width="1.33333" stroke-miterlimit="8" fill="none"/><text font-family="DengXian,DengXian_MSFontService,sans-serif" font-weight="400" font-size="16" transform="translate(453.366 289)">area128</text><rect x="180.5" y="398.5" width="75" height="43" stroke="#000000" stroke-width="1.33333" stroke-miterlimit="8" fill="none"/><text font-family="DengXian,DengXian_MSFontService,sans-serif" font-weight="400" font-size="16" transform="translate(194.527 425)">block1</text><rect x="255.5" y="398.5" width="103" height="43" stroke="#000000" stroke-width="1.33333" stroke-miterlimit="8" fill="none"/><text font-family="Calibri,Calibri_MSFontService,sans-serif" font-weight="400" font-size="24" transform="translate(285.461 428)">···<tspan font-size="24" x="24" y="0">···</tspan></text><rect x="358.5" y="398.5" width="75" height="43" stroke="#000000" stroke-width="1.33333" stroke-miterlimit="8" fill="none"/><text font-family="DengXian,DengXian_MSFontService,sans-serif" font-weight="400" font-size="16" transform="translate(370.927 425)">b<tspan font-size="16" x="9.16666" y="0">lock n</tspan></text><path d="M0.297856-0.149642 16.289 31.6801 15.6933 31.9794-0.297856 0.149642ZM18.9669 28.8426 18.984 37.7869 11.8184 32.434Z" transform="matrix(-1 0 0 1 292.484 314.5)"/><rect x="174.5" y="498.5" width="75" height="43" stroke="#000000" stroke-width="1.33333" stroke-miterlimit="8" fill="none"/><text font-family="DengXian,DengXian_MSFontService,sans-serif" font-weight="400" font-size="16" transform="translate(189.407 525)">block1</text><path d="M0.308275-0.126797 16.6862 39.6921 16.0697 39.9457-0.308275 0.126797ZM19.5701 37.0643 18.9139 45.9845 12.1715 40.1074Z" transform="matrix(-1 0 0 1 213.414 446.5)"/><text font-family="Calibri,Calibri_MSFontService,sans-serif" font-weight="400" font-size="24" transform="translate(320.333 343)">···<tspan font-size="24" x="24" y="0">···</tspan><tspan font-size="24" x="139.425" y="85">···</tspan><tspan font-size="24" x="163.425" y="85">···</tspan><tspan font-size="24" x="-76.3494" y="135">···</tspan><tspan font-size="24" x="-52.3494" y="135">···</tspan><tspan font-size="24" x="49.5401" y="186">···</tspan><tspan font-size="24" x="73.5401" y="186">···</tspan></text><rect x="265.5" y="498.5" width="75" height="43" stroke="#000000" stroke-width="1.33333" stroke-miterlimit="8" fill="none"/><text font-family="DengXian,DengXian_MSFontService,sans-serif" font-weight="400" font-size="16" transform="translate(279.954 525)">block2</text><path d="M180.5 396.5C180.5 390.701 184.088 386 188.514 386L298.986 386C303.412 386 307 381.299 307 375.5 307 381.299 310.588 386 315.014 386L425.486 386C429.912 386 433.5 390.701 433.5 396.5" stroke="#000000" stroke-width="1.33333" stroke-miterlimit="8" fill="none" fill-rule="evenodd"/><text font-family="DengXian,DengXian_MSFontService,sans-serif" font-weight="400" font-size="16" transform="translate(267.235 369)">area_node(n)</text></g></svg>