<svg width="937" height="602" xmlns="http://www.w3.org/2000/svg" xmlns:xlink="http://www.w3.org/1999/xlink" overflow="hidden"><defs><clipPath id="clip0"><rect x="308" y="54" width="937" height="602"/></clipPath></defs><g clip-path="url(#clip0)" transform="translate(-308 -54)"><rect x="317.5" y="60.5001" width="926" height="594" stroke="#0070C0" stroke-width="1.33333" stroke-miterlimit="8" stroke-dasharray="10.6667 4" fill="#FFFFFF" fill-opacity="0.101961"/><rect x="318" y="60" width="160" height="47" fill="#FFFFFF" fill-opacity="0.101961"/><text fill="#0070C0" font-family="DengXian,DengXian_MSFontService,sans-serif" font-weight="400" font-size="32" transform="translate(327.593 95)">NVM space</text><rect x="940.5" y="276.5" width="104" height="43" stroke="#000000" stroke-width="1.33333" stroke-miterlimit="8" fill="none"/><text font-family="DengXian,DengXian_MSFontService,sans-serif" font-weight="400" font-size="24" transform="translate(985.5 305)">1</text><rect x="1044.5" y="276.5" width="157" height="43" stroke="#000000" stroke-width="1.33333" stroke-miterlimit="8" fill="none"/><text font-family="DengXian,DengXian_MSFontService,sans-serif" font-weight="400" font-size="24" transform="translate(1067.72 305)">pre_length</text><rect x="940.5" y="142.5" width="104" height="42" stroke="#000000" stroke-width="1.33333" stroke-miterlimit="8" fill="none"/><text font-family="DengXian,DengXian_MSFontService,sans-serif" font-weight="400" font-size="24" transform="translate(951.767 170)">valid bit</text><rect x="1044.5" y="142.5" width="158" height="42" stroke="#000000" stroke-width="1.33333" stroke-miterlimit="8" fill="none"/><text font-family="DengXian,DengXian_MSFontService,sans-serif" font-weight="400" font-size="24" transform="translate(1090.32 170)">length</text><path d="M940.5 126.5C940.5 121.253 943.746 117 947.751 117L1064.25 117C1068.25 117 1071.5 112.747 1071.5 107.5 1071.5 112.747 1074.75 117 1078.75 117L1195.25 117C1199.25 117 1202.5 121.253 1202.5 126.5" stroke="#000000" stroke-width="1.33333" stroke-miterlimit="8" fill="none" fill-rule="evenodd"/><text font-family="DengXian,DengXian_MSFontService,sans-serif" font-weight="400" font-size="16" transform="translate(1050.2 98)">4 Byte<tspan font-size="15" x="-71.9333" y="37">1 bit</tspan><tspan font-size="15" x="55.0333" y="36">31 bit</tspan></text><rect x="940.5" y="561.5" width="104" height="43" stroke="#000000" stroke-width="1.33333" stroke-miterlimit="8" fill="none"/><text font-family="DengXian,DengXian_MSFontService,sans-serif" font-weight="400" font-size="24" transform="translate(985.5 590)">1</text><rect x="1044.5" y="561.5" width="157" height="43" stroke="#000000" stroke-width="1.33333" stroke-miterlimit="8" fill="none"/><text font-family="DengXian,DengXian_MSFontService,sans-serif" font-weight="400" font-size="24" transform="translate(1063.72 590)">new_length</text><rect x="939.5" y="419.5" width="104" height="42" stroke="#000000" stroke-width="1.33333" stroke-miterlimit="8" fill="none"/><text font-family="DengXian,DengXian_MSFontService,sans-serif" font-weight="400" font-size="24" transform="translate(984.599 447)">0</text><rect x="1043.5" y="419.5" width="158" height="42" stroke="#000000" stroke-width="1.33333" stroke-miterlimit="8" fill="none"/><text font-family="DengXian,DengXian_MSFontService,sans-serif" font-weight="400" font-size="24" transform="translate(1066.82 447)">pre_length</text><rect x="517.5" y="142.5" width="44" height="42" stroke="#000000" stroke-width="1.33333" stroke-miterlimit="8" fill="none"/><rect x="561.5" y="142.5" width="45" height="42" stroke="#000000" stroke-width="1.33333" stroke-miterlimit="8" fill="none"/><rect x="606.5" y="142.5" width="45" height="42" stroke="#000000" stroke-width="1.33333" stroke-miterlimit="8" fill="none"/><rect x="651.5" y="142.5" width="45" height="42" stroke="#000000" stroke-width="1.33333" stroke-miterlimit="8" fill="none"/><rect x="696.5" y="142.5" width="45" height="42" stroke="#000000" stroke-width="1.33333" stroke-miterlimit="8" fill="none"/><rect x="741.5" y="142.5" width="44" height="42" stroke="#000000" stroke-width="1.33333" stroke-miterlimit="8" fill="none"/><rect x="785.5" y="142.5" width="45" height="42" stroke="#000000" stroke-width="1.33333" stroke-miterlimit="8" fill="none"/><rect x="830.5" y="142.5" width="45" height="42" stroke="#000000" stroke-width="1.33333" stroke-miterlimit="8" fill="none"/><text font-family="DengXian,DengXian_MSFontService,sans-serif" font-weight="400" font-size="24" transform="translate(650.9 133)">raw data</text><rect x="516.5" y="276.5" width="45" height="43" stroke="#000000" stroke-width="1.33333" stroke-miterlimit="8" fill="#ADB9CA"/><rect x="561.5" y="276.5" width="45" height="43" stroke="#000000" stroke-width="1.33333" stroke-miterlimit="8" fill="#ADB9CA"/><rect x="606.5" y="276.5" width="45" height="43" stroke="#000000" stroke-width="1.33333" stroke-miterlimit="8" fill="#ADB9CA"/><rect x="651.5" y="276.5" width="44" height="43" stroke="#000000" stroke-width="1.33333" stroke-miterlimit="8" fill="#ADB9CA"/><rect x="695.5" y="276.5" width="45" height="43" stroke="#000000" stroke-width="1.33333" stroke-miterlimit="8" fill="#ADB9CA"/><rect x="740.5" y="276.5" width="45" height="43" stroke="#000000" stroke-width="1.33333" stroke-miterlimit="8" fill="none"/><rect x="785.5" y="276.5" width="45" height="43" stroke="#000000" stroke-width="1.33333" stroke-miterlimit="8" fill="none"/><rect x="830.5" y="276.5" width="45" height="43" stroke="#000000" stroke-width="1.33333" stroke-miterlimit="8" fill="none"/><path d="M516.5 269.5C516.5 263.425 520.259 258.5 524.895 258.5L620.105 258.5C624.741 258.5 628.5 253.575 628.5 247.5 628.5 253.575 632.259 258.5 636.895 258.5L732.105 258.5C736.741 258.5 740.5 263.425 740.5 269.5" stroke="#000000" stroke-width="1.33333" stroke-miterlimit="8" fill="none" fill-rule="evenodd"/><text font-family="DengXian,DengXian_MSFontService,sans-serif" font-weight="400" font-size="21" transform="translate(579.45 243)">pre_length</text><rect x="516.5" y="561.5" width="45" height="43" stroke="#000000" stroke-width="1.33333" stroke-miterlimit="8" fill="#ADB9CA"/><rect x="561.5" y="561.5" width="45" height="43" stroke="#000000" stroke-width="1.33333" stroke-miterlimit="8" fill="#ADB9CA"/><rect x="606.5" y="561.5" width="45" height="43" stroke="#000000" stroke-width="1.33333" stroke-miterlimit="8" fill="#ADB9CA"/><rect x="651.5" y="561.5" width="44" height="43" stroke="#000000" stroke-width="1.33333" stroke-miterlimit="8" fill="#ADB9CA"/><rect x="695.5" y="561.5" width="45" height="43" stroke="#000000" stroke-width="1.33333" stroke-miterlimit="8" fill="#ADB9CA"/><rect x="740.5" y="561.5" width="45" height="43" stroke="#000000" stroke-width="1.33333" stroke-miterlimit="8" fill="#ADB9CA"/><rect x="785.5" y="561.5" width="45" height="43" stroke="#000000" stroke-width="1.33333" stroke-miterlimit="8" fill="#ADB9CA"/><rect x="830.5" y="561.5" width="45" height="43" stroke="#000000" stroke-width="1.33333" stroke-miterlimit="8" fill="none"/><path d="M519.5 556.5C519.5 550.425 523.259 545.5 527.895 545.5L666.605 545.5C671.241 545.5 675 540.575 675 534.5 675 540.575 678.759 545.5 683.395 545.5L822.105 545.5C826.741 545.5 830.5 550.425 830.5 556.5" stroke="#000000" stroke-width="1.33333" stroke-miterlimit="8" fill="none" fill-rule="evenodd"/><text font-family="DengXian,DengXian_MSFontService,sans-serif" font-weight="400" font-size="21" transform="translate(622.15 530)">new_length</text><rect x="516.5" y="419.5" width="45" height="42" stroke="#000000" stroke-width="1.33333" stroke-miterlimit="8" fill="#ADB9CA"/><rect x="561.5" y="419.5" width="44" height="42" stroke="#000000" stroke-width="1.33333" stroke-miterlimit="8" fill="#ADB9CA"/><rect x="605.5" y="419.5" width="45" height="42" stroke="#000000" stroke-width="1.33333" stroke-miterlimit="8" fill="#ADB9CA"/><rect x="650.5" y="419.5" width="45" height="42" stroke="#000000" stroke-width="1.33333" stroke-miterlimit="8" fill="#ADB9CA"/><rect x="695.5" y="419.5" width="45" height="42" stroke="#000000" stroke-width="1.33333" stroke-miterlimit="8" fill="#ADB9CA"/><rect x="740.5" y="419.5" width="45" height="42" stroke="#000000" stroke-width="1.33333" stroke-miterlimit="8" fill="#FFE699"/><rect x="785.5" y="419.5" width="45" height="42" stroke="#000000" stroke-width="1.33333" stroke-miterlimit="8" fill="none"/><text fill="#FFC000" font-family="Calibri,Calibri_MSFontService,sans-serif" font-weight="400" font-size="32" transform="translate(795.299 451)">···</text><rect x="830.5" y="419.5" width="44" height="42" stroke="#000000" stroke-width="1.33333" stroke-miterlimit="8" fill="none"/><path d="M885.5 372 896.75 372 896.75 345.5 919.25 345.5 919.25 372 930.5 372 908 394.5Z" stroke="#4472C4" stroke-width="1.33333" stroke-miterlimit="8" fill="#FFFFFF" fill-rule="evenodd"/><path d="M885.5 511 896.75 511 896.75 485.5 919.25 485.5 919.25 511 930.5 511 908 533.5Z" stroke="#4472C4" stroke-width="1.33333" stroke-miterlimit="8" fill="#FFFFFF" fill-rule="evenodd"/><text font-family="DengXian,DengXian_MSFontService,sans-serif" font-weight="400" font-size="24" transform="translate(412.226 305)">previous<tspan font-size="24" x="16.9167" y="285">finish</tspan><tspan font-size="24" x="4.33331" y="142">appen</tspan><tspan font-size="24" x="69.5" y="142">d</tspan></text></g></svg>