<svg width="1179" height="602" xmlns="http://www.w3.org/2000/svg" xmlns:xlink="http://www.w3.org/1999/xlink" overflow="hidden"><defs><clipPath id="clip0"><rect x="56" y="59" width="1179" height="602"/></clipPath></defs><g clip-path="url(#clip0)" transform="translate(-56 -59)"><rect x="65.5001" y="65.5001" width="1168" height="594" stroke="#0070C0" stroke-width="1.33333" stroke-miterlimit="8" stroke-dasharray="10.6667 4" fill="#FFFFFF" fill-opacity="0.101961"/><rect x="66" y="65" width="202" height="47" fill="#FFFFFF" fill-opacity="0.101961"/><text fill="#0070C0" font-family="DengXian,DengXian_MSFontService,sans-serif" font-weight="400" font-size="32" transform="translate(76.093 100)">NVM space</text><path d="M1013.5 358 1024.75 358 1024.75 331.5 1047.25 331.5 1047.25 358 1058.5 358 1036 380.5Z" stroke="#4472C4" stroke-width="1.33333" stroke-miterlimit="8" fill="#FFFFFF" fill-rule="evenodd"/><path d="M1013.5 482 1024.75 482 1024.75 456.5 1047.25 456.5 1047.25 482 1058.5 482 1036 504.5Z" stroke="#4472C4" stroke-width="1.33333" stroke-miterlimit="8" fill="#FFFFFF" fill-rule="evenodd"/><text font-family="DengXian,DengXian_MSFontService,sans-serif" font-weight="400" font-size="24" transform="translate(199.678 594)">previous<tspan font-size="32" x="244.706" y="-476">root_ptr</tspan></text><path d="M0.20099-0.265922 85.6825 64.343 85.2806 64.8749-0.20099 0.265922ZM86.8298 60.614 90.8 68.6288 82.006 66.9961Z" transform="matrix(-1 0 0 1 473.3 131.5)"/><text font-family="DengXian,DengXian_MSFontService,sans-serif" font-weight="400" font-size="24" transform="translate(599.485 593)">new</text><path d="M528.716 131.246 530.746 132.976 530.314 133.483 528.284 131.754ZM532.268 134.273 534.298 136.002 533.866 136.51 531.836 134.78ZM535.821 137.299 537.851 139.029 537.418 139.536 535.388 137.807ZM539.373 140.326 541.403 142.055 540.97 142.562 538.941 140.833ZM542.925 143.352 544.955 145.081 544.523 145.589 542.493 143.86ZM546.477 146.379 548.507 148.108 548.075 148.615 546.045 146.886ZM550.03 149.405 552.06 151.134 551.627 151.642 549.597 149.912ZM553.582 152.431 555.612 154.161 555.179 154.668 553.15 152.939ZM557.134 155.458 559.164 157.187 558.732 157.695 556.702 155.965ZM560.686 158.484 562.716 160.214 562.284 160.721 560.254 158.992ZM564.239 161.511 566.268 163.24 565.836 163.748 563.806 162.018ZM567.791 164.537 569.821 166.267 569.388 166.774 567.359 165.045ZM571.343 167.564 573.373 169.293 572.941 169.8 570.911 168.071ZM574.895 170.59 576.925 172.319 576.493 172.827 574.463 171.098ZM578.448 173.617 580.477 175.346 580.045 175.853 578.015 174.124ZM582 176.643 584.03 178.372 583.597 178.88 581.568 177.15ZM585.552 179.669 587.582 181.399 587.15 181.906 585.12 180.177ZM589.104 182.696 591.134 184.425 590.702 184.933 588.672 183.203ZM592.657 185.722 594.686 187.452 594.254 187.959 592.224 186.23ZM596.209 188.749 598.239 190.478 597.806 190.986 595.776 189.256ZM599.761 191.775 601.791 193.505 601.359 194.012 599.329 192.283ZM603.313 194.802 605.343 196.531 604.911 197.038 602.881 195.309ZM606.866 197.828 608.895 199.557 608.463 200.065 606.433 198.336ZM610.418 200.855 610.852 201.224 610.42 201.732 609.985 201.362ZM612.215 197.569 615.711 205.802 607.027 203.658Z" fill="#FF0000"/><path d="M577.5 152.5C577.5 144.768 583.768 138.5 591.5 138.5 599.232 138.5 605.5 144.768 605.5 152.5 605.5 160.232 599.232 166.5 591.5 166.5 583.768 166.5 577.5 160.232 577.5 152.5Z" stroke="#FF0000" stroke-width="1.33333" stroke-miterlimit="8" fill="none" fill-rule="evenodd"/><text fill="#FF0000" font-family="DengXian,DengXian_MSFontService,sans-serif" font-weight="400" font-size="19" transform="translate(585.805 158)">3</text><path d="M548.5 257.5C548.5 251.977 551.917 247.5 556.132 247.5L667.368 247.5C671.583 247.5 675 243.023 675 237.5 675 243.023 678.417 247.5 682.632 247.5L793.868 247.5C798.083 247.5 801.5 251.977 801.5 257.5" stroke="#000000" stroke-width="1.33333" stroke-miterlimit="8" fill="none" fill-rule="evenodd"/><text font-family="DengXian,DengXian_MSFontService,sans-serif" font-weight="400" font-size="16" transform="translate(636.696 233)">root_node(128)</text><rect x="548.5" y="262.5" width="75" height="42" stroke="#000000" stroke-width="1.33333" stroke-miterlimit="8" fill="none"/><text fill="#FF0000" font-family="DengXian,DengXian_MSFontService,sans-serif" font-weight="400" font-size="16" transform="translate(566.02 288)">area1</text><rect x="623.5" y="262.5" width="103" height="42" stroke="#000000" stroke-width="1.33333" stroke-miterlimit="8" fill="none"/><text font-family="Calibri,Calibri_MSFontService,sans-serif" font-weight="400" font-size="24" transform="translate(653.537 291)">···<tspan font-size="24" x="24" y="0">···</tspan></text><rect x="726.5" y="262.5" width="75" height="42" stroke="#000000" stroke-width="1.33333" stroke-miterlimit="8" fill="none"/><text fill="#FF0000" font-family="DengXian,DengXian_MSFontService,sans-serif" font-weight="400" font-size="16" transform="translate(735.986 288)">area128</text><rect x="462.5" y="398.5" width="75" height="42" stroke="#000000" stroke-width="1.33333" stroke-miterlimit="8" fill="none"/><text fill="#00B050" font-family="DengXian,DengXian_MSFontService,sans-serif" font-weight="400" font-size="16" transform="translate(477.147 424)">block1</text><rect x="537.5" y="398.5" width="104" height="42" stroke="#000000" stroke-width="1.33333" stroke-miterlimit="8" fill="none"/><text font-family="Calibri,Calibri_MSFontService,sans-serif" font-weight="400" font-size="24" transform="translate(568.081 427)">···<tspan font-size="24" x="24" y="0">···</tspan></text><rect x="641.5" y="398.5" width="75" height="42" stroke="#000000" stroke-width="1.33333" stroke-miterlimit="8" fill="none"/><text fill="#00B050" font-family="DengXian,DengXian_MSFontService,sans-serif" font-weight="400" font-size="16" transform="translate(653.547 424)">block n</text><path d="M0.297856-0.149642 1.49499 2.23321 0.899282 2.53249-0.297856 0.149642ZM2.39285 4.02034 3.58999 6.40319 2.99427 6.70248 1.79714 4.31963ZM4.48784 8.19033 5.68498 10.5732 5.08927 10.8725 3.89213 8.48962ZM6.58283 12.3603 7.77997 14.7432 7.18426 15.0425 5.98712 12.6596ZM8.67782 16.5303 9.87496 18.9132 9.27925 19.2124 8.08211 16.8296ZM10.7728 20.7003 11.97 23.0831 11.3742 23.3824 10.1771 20.9996ZM12.8678 24.8703 14.0649 27.2531 13.4692 27.5524 12.2721 25.1696ZM14.9628 29.0403 16.1599 31.4231 15.5642 31.7224 14.3671 29.3396ZM18.9669 28.8426 18.984 37.7869 11.8184 32.434Z" fill="#FF0000" transform="matrix(-1 0 0 1 575.484 313.5)"/><rect x="457.5" y="498.5" width="75" height="42" stroke="#000000" stroke-width="1.33333" stroke-miterlimit="8" fill="none"/><text fill="#4472C4" font-family="DengXian,DengXian_MSFontService,sans-serif" font-weight="400" font-size="16" transform="translate(472.027 524)">block1</text><path d="M0.308275-0.126797 1.32265 2.33941 0.7061 2.593-0.308275 0.126797ZM2.08343 4.18906 3.09781 6.65526 2.48126 6.90885 1.46688 4.44265ZM3.85859 8.50491 4.87297 10.9711 4.25642 11.2247 3.24204 8.7585ZM5.63375 12.8208 6.64812 15.287 6.03157 15.5406 5.0172 13.0744ZM7.4089 17.1366 8.42328 19.6028 7.80673 19.8564 6.79235 17.3902ZM9.18406 21.4525 10.1984 23.9187 9.58189 24.1723 8.56751 21.7061ZM10.9592 25.7683 11.9736 28.2345 11.357 28.4881 10.3427 26.0219ZM12.7344 30.0842 13.7488 32.5504 13.1322 32.804 12.1178 30.3378ZM14.5095 34.4 15.5239 36.8662 14.9074 37.1198 13.893 34.6536ZM16.2847 38.7159 16.6862 39.6921 16.0697 39.9457 15.6681 38.9695ZM19.5701 37.0643 18.9139 45.9845 12.1715 40.1074Z" fill="#FF0000" transform="matrix(-1 0 0 1 496.414 445.5)"/><text font-family="Calibri,Calibri_MSFontService,sans-serif" font-weight="400" font-size="24" transform="translate(602.953 342)">···<tspan font-size="24" x="24" y="0">···</tspan><tspan font-size="24" x="139.425" y="85">···</tspan><tspan font-size="24" x="163.425" y="85">···</tspan><tspan font-size="24" x="-76.3494" y="136">···</tspan><tspan font-size="24" x="-52.3494" y="136">···</tspan><tspan font-size="24" x="49.5402" y="186">···</tspan><tspan font-size="24" x="73.5402" y="186">···</tspan></text><rect x="548.5" y="498.5" width="75" height="42" stroke="#000000" stroke-width="1.33333" stroke-miterlimit="8" fill="none"/><text fill="#4472C4" font-family="DengXian,DengXian_MSFontService,sans-serif" font-weight="400" font-size="16" transform="translate(562.574 524)">block2</text><path d="M445.5 464C445.5 456.544 451.768 450.5 459.5 450.5 467.232 450.5 473.5 456.544 473.5 464 473.5 471.456 467.232 477.5 459.5 477.5 451.768 477.5 445.5 471.456 445.5 464Z" stroke="#FF0000" stroke-width="1.33333" stroke-miterlimit="8" fill="none" fill-rule="evenodd"/><text fill="#FF0000" font-family="DengXian,DengXian_MSFontService,sans-serif" font-weight="400" font-size="19" transform="translate(454.409 469)">1</text><path d="M523.5 328.5C523.5 320.768 529.768 314.5 537.5 314.5 545.232 314.5 551.5 320.768 551.5 328.5 551.5 336.232 545.232 342.5 537.5 342.5 529.768 342.5 523.5 336.232 523.5 328.5Z" stroke="#FF0000" stroke-width="1.33333" stroke-miterlimit="8" fill="none" fill-rule="evenodd"/><text fill="#FF0000" font-family="DengXian,DengXian_MSFontService,sans-serif" font-weight="400" font-size="19" transform="translate(531.72 334)">2</text><path d="M462.5 395.5C462.5 389.701 466.088 385 470.514 385L581.486 385C585.912 385 589.5 380.299 589.5 374.5 589.5 380.299 593.088 385 597.514 385L708.486 385C712.912 385 716.5 389.701 716.5 395.5" stroke="#000000" stroke-width="1.33333" stroke-miterlimit="8" fill="none" fill-rule="evenodd"/><text font-family="DengXian,DengXian_MSFontService,sans-serif" font-weight="400" font-size="16" transform="translate(549.856 368)">area_node(n)</text><path d="M182.5 257.5C182.5 252.253 185.746 248 189.751 248L301.75 248C305.754 248 309 243.747 309 238.5 309 243.747 312.246 248 316.251 248L428.25 248C432.254 248 435.5 252.253 435.5 257.5" stroke="#000000" stroke-width="1.33333" stroke-miterlimit="8" fill="none" fill-rule="evenodd"/><text font-family="DengXian,DengXian_MSFontService,sans-serif" font-weight="400" font-size="16" transform="translate(270.876 234)">root_node(128)</text><rect x="182.5" y="262.5" width="75" height="43" stroke="#000000" stroke-width="1.33333" stroke-miterlimit="8" fill="none"/><text font-family="DengXian,DengXian_MSFontService,sans-serif" font-weight="400" font-size="16" transform="translate(200.2 289)">area1</text><rect x="257.5" y="262.5" width="104" height="43" stroke="#000000" stroke-width="1.33333" stroke-miterlimit="8" fill="none"/><text font-family="Calibri,Calibri_MSFontService,sans-serif" font-weight="400" font-size="24" transform="translate(287.717 292)">···<tspan font-size="24" x="24" y="0">···</tspan></text><rect x="360.5" y="262.5" width="75" height="43" stroke="#000000" stroke-width="1.33333" stroke-miterlimit="8" fill="none"/><text font-family="DengXian,DengXian_MSFontService,sans-serif" font-weight="400" font-size="16" transform="translate(370.166 289)">area128</text><rect x="96.5001" y="398.5" width="75" height="43" stroke="#000000" stroke-width="1.33333" stroke-miterlimit="8" fill="none"/><text font-family="DengXian,DengXian_MSFontService,sans-serif" font-weight="400" font-size="16" transform="translate(111.327 425)">block1</text><rect x="171.5" y="398.5" width="104" height="43" stroke="#000000" stroke-width="1.33333" stroke-miterlimit="8" fill="none"/><text font-family="Calibri,Calibri_MSFontService,sans-serif" font-weight="400" font-size="24" transform="translate(202.261 428)">···<tspan font-size="24" x="24" y="0">···</tspan></text><rect x="275.5" y="398.5" width="75" height="43" stroke="#000000" stroke-width="1.33333" stroke-miterlimit="8" fill="none"/><text font-family="DengXian,DengXian_MSFontService,sans-serif" font-weight="400" font-size="16" transform="translate(287.727 425)">block n</text><path d="M0.297856-0.149642 16.289 31.6801 15.6933 31.9794-0.297856 0.149642ZM18.9669 28.8426 18.984 37.7869 11.8184 32.434Z" transform="matrix(-1 0 0 1 209.484 314.5)"/><rect x="91.5001" y="498.5" width="75" height="43" stroke="#000000" stroke-width="1.33333" stroke-miterlimit="8" fill="none"/><text font-family="DengXian,DengXian_MSFontService,sans-serif" font-weight="400" font-size="16" transform="translate(106.207 525)">block1</text><path d="M0.308275-0.126797 16.6862 39.6921 16.0697 39.9457-0.308275 0.126797ZM19.5701 37.0643 18.9139 45.9845 12.1715 40.1074Z" transform="matrix(-1 0 0 1 130.414 446.5)"/><text font-family="Calibri,Calibri_MSFontService,sans-serif" font-weight="400" font-size="24" transform="translate(237.133 343)">···<tspan font-size="24" x="24" y="0">···</tspan><tspan font-size="24" x="139.425" y="85">···</tspan><tspan font-size="24" x="163.425" y="85">···</tspan><tspan font-size="24" x="-76.3494" y="135">···</tspan><tspan font-size="24" x="-52.3494" y="135">···</tspan><tspan font-size="24" x="49.5402" y="186">···</tspan><tspan font-size="24" x="73.5402" y="186">···</tspan></text><rect x="182.5" y="498.5" width="75" height="43" stroke="#000000" stroke-width="1.33333" stroke-miterlimit="8" fill="none"/><text font-family="DengXian,DengXian_MSFontService,sans-serif" font-weight="400" font-size="16" transform="translate(196.754 525)">block2</text><path d="M96.5 396.5C96.5 390.701 100.088 386 104.514 386L215.486 386C219.912 386 223.5 381.299 223.5 375.5 223.5 381.299 227.088 386 231.514 386L342.486 386C346.912 386 350.5 390.701 350.5 396.5" stroke="#000000" stroke-width="1.33333" stroke-miterlimit="8" fill="none" fill-rule="evenodd"/><text font-family="DengXian,DengXian_MSFontService,sans-serif" font-weight="400" font-size="16" transform="translate(184.035 369)">area_node(n)</text><rect x="983.5" y="147.5" width="104" height="42" stroke="#000000" stroke-width="1.33333" stroke-miterlimit="8" fill="none"/><text font-family="DengXian,DengXian_MSFontService,sans-serif" font-weight="400" font-size="24" transform="translate(1002.4 176)">length</text><rect x="1087.5" y="147.5" width="104" height="42" stroke="#000000" stroke-width="1.33333" stroke-miterlimit="8" fill="none"/><text font-family="DengXian,DengXian_MSFontService,sans-serif" font-weight="400" font-size="24" transform="translate(1097.56 176)">root_ptr</text><path d="M879.5 132.5C879.5 126.977 882.917 122.5 887.132 122.5L1027.87 122.5C1032.08 122.5 1035.5 118.023 1035.5 112.5 1035.5 118.023 1038.92 122.5 1043.13 122.5L1183.87 122.5C1188.08 122.5 1191.5 126.977 1191.5 132.5" stroke="#000000" stroke-width="1.33333" stroke-miterlimit="8" fill="none" fill-rule="evenodd"/><text font-family="DengXian,DengXian_MSFontService,sans-serif" font-weight="400" font-size="16" transform="translate(1008.23 104)">12 Byte<tspan font-size="15" x="9.08411" y="36">31 </tspan><tspan font-size="15" x="28.4174" y="36">bit</tspan><tspan font-size="15" x="112.051" y="36">8 </tspan><tspan font-size="15" x="123.717" y="36">Byte</tspan></text><rect x="879.5" y="147.5" width="104" height="42" stroke="#000000" stroke-width="1.33333" stroke-miterlimit="8" fill="none"/><text font-family="DengXian,DengXian_MSFontService,sans-serif" font-weight="400" font-size="24" transform="translate(890.647 176)">valid bit<tspan font-size="15" x="26.2251" y="-36">1 bit</tspan></text><rect x="983.5" y="521.5" width="104" height="42" stroke="#000000" stroke-width="1.33333" stroke-miterlimit="8" fill="none"/><text font-family="DengXian,DengXian_MSFontService,sans-serif" font-weight="400" font-size="15" transform="translate(999.147 547)">new_length</text><rect x="1087.5" y="521.5" width="104" height="42" stroke="#000000" stroke-width="1.33333" stroke-miterlimit="8" fill="none"/><text font-family="DengXian,DengXian_MSFontService,sans-serif" font-weight="400" font-size="15" transform="translate(1097.9 547)">new_root<tspan font-size="15" x="58.3334" y="0">_ptr</tspan></text><rect x="879.5" y="521.5" width="104" height="42" stroke="#000000" stroke-width="1.33333" stroke-miterlimit="8" fill="none"/><text font-family="DengXian,DengXian_MSFontService,sans-serif" font-weight="400" font-size="19" transform="translate(926.23 548)">1</text><rect x="983.5" y="396.5" width="104" height="43" stroke="#000000" stroke-width="1.33333" stroke-miterlimit="8" fill="none"/><text font-family="DengXian,DengXian_MSFontService,sans-serif" font-weight="400" font-size="15" transform="translate(1001.65 423)">pre_length</text><rect x="1087.5" y="396.5" width="104" height="43" stroke="#000000" stroke-width="1.33333" stroke-miterlimit="8" fill="none"/><text font-family="DengXian,DengXian_MSFontService,sans-serif" font-weight="400" font-size="15" transform="translate(1100.4 423)">pre_root<tspan font-size="15" x="53.3334" y="0">_ptr</tspan></text><rect x="879.5" y="396.5" width="104" height="43" stroke="#000000" stroke-width="1.33333" stroke-miterlimit="8" fill="none"/><text font-family="DengXian,DengXian_MSFontService,sans-serif" font-weight="400" font-size="19" transform="translate(926.23 423)">0</text><rect x="983.5" y="271.5" width="104" height="43" stroke="#000000" stroke-width="1.33333" stroke-miterlimit="8" fill="none"/><text font-family="DengXian,DengXian_MSFontService,sans-serif" font-weight="400" font-size="15" transform="translate(1001.65 298)">pre_length</text><rect x="1087.5" y="271.5" width="104" height="43" stroke="#000000" stroke-width="1.33333" stroke-miterlimit="8" fill="none"/><text font-family="DengXian,DengXian_MSFontService,sans-serif" font-weight="400" font-size="15" transform="translate(1100.4 298)">pre_root<tspan font-size="15" x="53.3334" y="0">_ptr</tspan></text><rect x="879.5" y="271.5" width="104" height="43" stroke="#000000" stroke-width="1.33333" stroke-miterlimit="8" fill="none"/><text font-family="DengXian,DengXian_MSFontService,sans-serif" font-weight="400" font-size="19" transform="translate(926.23 298)">1</text></g></svg>